<svg width="39" height="39" viewBox="0 0 39 39" fill="none" xmlns="http://www.w3.org/2000/svg">
<path d="M2 32.625C2 30.3044 2.92187 28.0788 4.56282 26.4378C6.20376 24.7969 8.42936 23.875 10.75 23.875H28.25C30.5706 23.875 32.7962 24.7969 34.4372 26.4378C36.0781 28.0788 37 30.3044 37 32.625C37 33.7853 36.5391 34.8981 35.7186 35.7186C34.8981 36.5391 33.7853 37 32.625 37H6.375C5.21468 37 4.10188 36.5391 3.28141 35.7186C2.46094 34.8981 2 33.7853 2 32.625Z" stroke="#E82E05" stroke-width="2.5" stroke-linejoin="round"/>
<path d="M19.5 15.125C23.1244 15.125 26.0625 12.1869 26.0625 8.5625C26.0625 4.93813 23.1244 2 19.5 2C15.8756 2 12.9375 4.93813 12.9375 8.5625C12.9375 12.1869 15.8756 15.125 19.5 15.125Z" stroke="#E82E05" stroke-width="2.5"/>
</svg>
